<svg width="117" height="85" viewBox="0 0 117 85" fill="none" xmlns="http://www.w3.org/2000/svg">
<g clip-path="url(#clip0_320_6)">
<path d="M49.285 40.6229C48.9097 40.7109 48.1772 40.9846 47.4537 41.2975C46.4997 41.713 45.1477 42.368 45.1477 42.4121C45.1477 42.4365 45.2743 42.5196 45.4326 42.5978C45.5863 42.676 45.7536 42.7738 45.8034 42.8129C45.8938 42.8911 45.8893 42.8911 45.7491 42.9449C45.6677 42.9791 45.5999 43.0329 45.5999 43.072C45.5999 43.1062 45.7355 43.2138 45.9074 43.3066C46.3234 43.5315 46.7077 43.8541 47.0965 44.3039C47.5171 44.7878 47.7522 45.1838 48.132 46.0441C48.4666 46.7871 49.3257 49.2118 49.3166 49.3731C49.3121 49.4269 48.5435 53.0003 47.612 57.3167C44.4243 72.0503 43.7868 75.1642 43.2532 78.7034C43.0226 80.2188 43 80.4437 43 81.2699C43 82.2183 43.0769 82.575 43.3979 83.0882C43.5019 83.2593 43.6195 83.4599 43.6556 83.5379C43.8907 84.0366 44.4921 84.4718 45.1477 84.6234C45.7084 84.7504 47.0197 84.6919 47.8652 84.5008C48.5208 84.3543 49.9135 83.895 49.9632 83.8165C49.9904 83.768 49.9677 83.7385 49.6693 83.4499C49.4704 83.2593 49.4704 83.2593 49.5699 83.1862C49.6693 83.1177 49.6648 83.1127 49.3437 82.7901C48.6926 82.1398 48.4666 81.6461 48.2586 80.3948C48.1365 79.6567 48.1275 78.0484 48.2405 76.8947C48.4485 74.7829 48.5525 74.1572 50.3928 64.1263C51.2383 59.5263 51.9301 55.728 51.9301 55.6791C51.9301 55.5423 52.0069 55.6449 52.1335 55.9382C52.4501 56.6715 53.2323 58.5975 54.1457 60.8853C56.7049 67.3135 57.8443 70.0168 59.4404 73.4484C62.0991 79.1825 64.075 82.3109 65.9605 83.7825C66.3991 84.1246 67.118 84.5058 67.534 84.6134C67.9138 84.7159 68.5695 84.7159 68.8905 84.6134C70.3961 84.1392 71.8114 81.8126 73.0955 77.7062C74.3344 73.7515 75.5507 67.8805 76.6404 60.636C77.6035 54.2371 77.92 49.9157 77.5854 47.7991C77.4498 46.9143 77.1785 46.2005 76.6359 45.2815C76.134 44.431 75.4603 44.0497 74.4701 44.0546C73.6381 44.0546 72.9373 44.255 71.9244 44.7829C71.3638 45.0714 70.4052 45.7019 70.2876 45.8535C70.247 45.9024 70.2786 45.9512 70.4323 46.0637C70.6855 46.2543 70.8031 46.3961 70.7443 46.4401C70.6494 46.5036 70.6991 46.6356 70.8619 46.7578C71.1558 46.9729 71.7345 47.6475 71.9154 47.9751C72.3857 48.8501 72.7474 50.1748 72.9328 51.7098C73.1408 53.4403 73.1046 56.9306 72.8378 60.4209C72.6072 63.4859 72.155 66.7367 71.5491 69.7088C70.6222 74.2208 69.6772 76.7774 68.7413 77.2809C68.4428 77.4422 68.2846 77.4422 67.9862 77.2809C66.7789 76.6308 64.7125 72.808 61.8233 65.8714C61.0591 64.0383 60.4713 62.5718 58.5768 57.7567C53.7613 45.5211 52.6581 42.8324 52.025 41.8304C51.8035 41.4784 51.3875 41.058 51.0845 40.8771C50.5781 40.5838 49.8728 40.486 49.285 40.6229Z" fill="#394050"/>
<path d="M76.6792 49.2333C76.6321 49.3814 76.5851 51.2635 76.6203 51.5714C76.6713 52 76.8124 52.4559 76.9849 52.7326C77.0594 52.8495 77.1927 53.0678 77.2868 53.2197C77.3809 53.3678 77.5063 53.5549 77.5691 53.6289C78.0356 54.1744 78.9216 54.607 79.9134 54.7746C80.8465 54.9304 81.7246 54.9304 84.9707 54.7785C86.4212 54.7083 92.9604 54.2952 93.568 54.2368C93.7168 54.2212 93.7483 54.229 93.7246 54.268C93.6817 54.342 92.6896 55.3825 90.9494 57.175C83.085 65.2804 77.0398 72.0725 72.8294 77.5164L72.2452 78.2762L72.1198 78.8607C71.912 79.8505 71.865 80.135 71.865 80.4585C71.861 80.8366 71.912 81.0235 72.0806 81.2731C72.1511 81.3779 72.2452 81.5299 72.2883 81.608C72.504 82.0055 72.7549 82.1888 73.2292 82.3095C73.6134 82.4066 73.9114 82.4066 74.8444 82.3132C77.7651 82.0132 78.0865 81.9937 80.6112 81.9706C87.4915 81.9079 91.5881 82.5201 94.8695 84.102C95.1713 84.2499 95.5635 84.4487 95.736 84.5462C96.0546 84.7263 95.9713 85.2423 96.0967 84.6746C96.1592 84.597 96.2336 83.424 96.2062 82.9135C96.1515 81.9315 95.983 81.2921 95.5872 80.5752C95.2653 79.9908 95.0421 79.6869 94.7791 79.4803C93.8661 78.7634 91.3488 78.1749 87.9697 77.8866C85.7077 77.6995 81.5756 77.6177 78.9059 77.7112C78.1414 77.7385 77.5103 77.7502 77.4985 77.7385C77.4279 77.6683 81.1405 73.3039 84.5198 69.4889C89.6556 63.6866 93.0193 60.0158 95.8533 57.1165C97.7315 55.1954 98.01 54.7629 98.3546 53.2314C98.4957 52.604 98.692 51.4389 98.6646 51.396C98.6527 51.3765 98.5623 51.3688 98.4683 51.3843C98.2998 51.4077 98.2921 51.4038 98.3117 51.3181C98.3587 51.131 98.3861 50.8661 98.3624 50.831C98.351 50.8076 98.1821 50.8232 97.9392 50.8661C96.5002 51.131 94.5714 51.3259 92.2427 51.4506C90.9964 51.5129 85.547 51.5402 84.3826 51.4896C80.5681 51.3142 78.263 50.6829 77.0124 49.471C76.8516 49.3151 76.7144 49.1865 76.7066 49.1865C76.7027 49.1865 76.6909 49.2099 76.6792 49.2333Z" fill="#394050"/>
<path d="M97.0586 84.4897C97.4197 83.4237 97.4804 81.7967 98.8153 80.9717C100.375 79.9888 101.861 79.5258 101.679 78.2072L101.611 77.732L102.822 76.2152C108.745 68.8374 114.143 60.7496 123.235 45.651C125.86 41.2916 126.639 39.7427 126.19 39.7363C125.806 39.7435 124.036 41.7724 121.697 44.8893C109.62 60.9499 103.855 69.1731 100.067 75.7252C99.4457 76.795 98.1678 76.4052 97.6122 76.7423C95.4387 78.0719 95.7548 80.4479 96.1674 82.9051C96.3058 83.7391 96.6851 84.9748 96.8038 84.9997C96.8468 85.0088 96.9636 84.7769 97.0586 84.4897Z" fill="#394050"/>
</g>
<defs>
<clipPath id="clip0_320_6">
<rect width="117" height="85" fill="white"/>
</clipPath>
</defs>
</svg>
