<svg width="84" height="54" viewBox="0 0 84 54" fill="none" xmlns="http://www.w3.org/2000/svg">
<path d="M6.68439 5.43881C6.30909 5.52679 5.5766 5.80056 4.85315 6.11344C3.89911 6.52893 2.54716 7.18396 2.54716 7.22798C2.54716 7.25244 2.67376 7.33552 2.83202 7.41375C2.98575 7.49194 3.15305 7.58973 3.20278 7.6288C3.29321 7.70703 3.28869 7.70703 3.14852 7.76081C3.06714 7.79502 2.99931 7.84879 2.99931 7.88791C2.99931 7.92213 3.13496 8.02967 3.30678 8.12256C3.72276 8.34741 4.1071 8.67005 4.49595 9.11979C4.91647 9.60375 5.15158 9.99967 5.5314 10.86C5.86599 11.6031 6.72507 14.0277 6.71603 14.189C6.71151 14.2428 5.94287 17.8162 5.01143 22.1327C1.82371 36.8663 1.18617 39.9802 0.652624 43.5193C0.422022 45.0347 0.399414 45.2596 0.399414 46.0858C0.399414 47.0342 0.476279 47.3909 0.797314 47.9041C0.90131 48.0752 1.01887 48.2758 1.05504 48.3538C1.29016 48.8525 1.89153 49.2877 2.54716 49.4393C3.10783 49.5663 4.41908 49.5078 5.26461 49.3168C5.92022 49.1702 7.31289 48.711 7.3626 48.6324C7.38977 48.5839 7.36712 48.5544 7.06874 48.2658C6.86979 48.0752 6.86979 48.0752 6.96926 48.0021C7.06874 47.9336 7.06422 47.9286 6.74315 47.606C6.09206 46.9557 5.86599 46.462 5.658 45.2107C5.53592 44.4726 5.52688 42.8643 5.63992 41.7106C5.84791 39.5988 5.95191 38.9732 7.79219 28.9422C8.63771 24.3422 9.32948 20.5439 9.32948 20.495C9.32948 20.3582 9.40636 20.4608 9.53295 20.7542C9.84951 21.4874 10.6317 23.4134 11.5451 25.7012C14.1043 32.1294 15.2437 34.8327 16.8398 38.2643C19.4985 43.9984 21.4744 47.1268 23.3599 48.5984C23.7985 48.9406 24.5175 49.3217 24.9334 49.4293C25.3132 49.5318 25.9689 49.5318 26.2899 49.4293C27.7956 48.9551 29.2108 46.6285 30.4949 42.5221C31.7338 38.5674 32.9501 32.6965 34.0399 25.4519C35.0029 19.053 35.3194 14.7317 34.9849 12.615C34.8492 11.7302 34.5779 11.0165 34.0353 10.0975C33.5334 9.2469 32.8597 8.86558 31.8695 8.87048C31.0375 8.87048 30.3367 9.07092 29.3239 9.59885C28.7632 9.88727 27.8046 10.5178 27.687 10.6694C27.6464 10.7183 27.678 10.7672 27.8318 10.8796C28.0849 11.0702 28.2025 11.212 28.1437 11.256C28.0488 11.3195 28.0985 11.4515 28.2613 11.5738C28.5552 11.7888 29.1339 12.4634 29.3148 12.791C29.7851 13.666 30.1468 14.9907 30.3322 16.5257C30.5402 18.2562 30.504 21.7465 30.2372 25.2368C30.0066 28.3018 29.5544 31.5526 28.9486 34.5247C28.0216 39.0367 27.0766 41.5933 26.1407 42.0968C25.8422 42.2581 25.684 42.2581 25.3856 42.0968C24.1783 41.4467 22.112 37.6239 19.2227 30.6873C18.4585 28.8542 17.8707 27.3877 15.9762 22.5726C11.1607 10.337 10.0575 7.64836 9.42444 6.64627C9.20289 6.29428 8.78691 5.87389 8.48396 5.69302C7.97754 5.39974 7.27221 5.30195 6.68439 5.43881Z" fill="#394050"/>
<path d="M34.0786 14.0492C34.0315 14.1973 33.9845 16.0794 34.0197 16.3873C34.0707 16.8159 34.2118 17.2718 34.3844 17.5486C34.4588 17.6655 34.5921 17.8837 34.6862 18.0357C34.7803 18.1837 34.9057 18.3708 34.9685 18.4448C35.435 18.9904 36.321 19.4229 37.3128 19.5905C38.2459 19.7464 39.1241 19.7464 42.3701 19.5944C43.8206 19.5242 50.3598 19.1112 50.9674 19.0527C51.1162 19.0371 51.1477 19.0449 51.124 19.0839C51.0811 19.1579 50.0891 20.1984 48.3488 21.9909C40.4844 30.0963 34.4392 36.8884 30.2288 42.3323L29.6447 43.0921L29.5192 43.6767C29.3114 44.6665 29.2644 44.9509 29.2644 45.2744C29.2604 45.6525 29.3114 45.8394 29.48 46.089C29.5506 46.1938 29.6447 46.3459 29.6877 46.4239C29.9034 46.8214 30.1543 47.0047 30.6286 47.1254C31.0128 47.2226 31.3108 47.2226 32.2438 47.1291C35.1645 46.8291 35.4859 46.8096 38.0106 46.7865C44.8909 46.7238 48.9875 47.336 52.269 48.9179C52.5707 49.0658 52.9629 49.2646 53.1354 49.3621C53.454 49.5423 53.3707 50.0582 53.4961 49.4906C53.5586 49.413 53.633 48.2399 53.6056 47.7294C53.5509 46.7474 53.3824 46.1081 52.9866 45.3911C52.6648 44.8068 52.4415 44.5028 52.1786 44.2963C51.2655 43.5793 48.7483 42.9909 45.3691 42.7025C43.1071 42.5154 38.975 42.4336 36.3053 42.5271C35.5409 42.5544 34.9097 42.5661 34.8979 42.5544C34.8273 42.4843 38.5399 38.1198 41.9192 34.3048C47.055 28.5025 50.4187 24.8317 53.2528 21.9325C55.1309 20.0113 55.4094 19.5788 55.754 18.0473C55.8951 17.42 56.0914 16.2548 56.064 16.2119C56.0521 16.1924 55.9618 16.1847 55.8677 16.2002C55.6993 16.2236 55.6915 16.2197 55.7111 16.134C55.7581 15.9469 55.7855 15.682 55.7618 15.6469C55.7504 15.6235 55.5815 15.6391 55.3386 15.682C53.8996 15.9469 51.9708 16.1418 49.6421 16.2665C48.3958 16.3288 42.9464 16.3561 41.782 16.3055C37.9675 16.1301 35.6624 15.4988 34.4118 14.2869C34.251 14.131 34.1138 14.0024 34.106 14.0024C34.1021 14.0024 34.0903 14.0258 34.0786 14.0492Z" fill="#394050"/>
<path d="M54.458 49.3056C54.8191 48.2397 54.8798 46.6126 56.2147 45.7876C57.7742 44.8047 59.2601 44.3418 59.0785 43.0231L59.0104 42.5479L60.2216 41.0311C66.1445 33.6533 71.5424 25.5655 80.6345 10.4669C83.2595 6.10749 84.0388 4.5586 83.5895 4.55225C83.2056 4.55946 81.4352 6.58832 79.096 9.70525C67.0192 25.7658 61.2547 33.989 57.466 40.5411C56.8451 41.6109 55.5672 41.2211 55.0116 41.5582C52.8381 42.8879 53.1542 45.2638 53.5669 47.721C53.7052 48.555 54.0846 49.7907 54.2033 49.8156C54.2462 49.8247 54.363 49.5928 54.458 49.3056Z" fill="#394050"/>
</svg>
