<svg width="85" height="55" viewBox="0 0 85 55" fill="none" xmlns="http://www.w3.org/2000/svg">
<g clip-path="url(#clip0)">
<path d="M7.67072 5.84701C7.29542 5.935 6.56293 6.20876 5.83948 6.52165C4.88543 6.93713 3.53349 7.59216 3.53349 7.63618C3.53349 7.66064 3.66009 7.74373 3.81835 7.82196C3.97207 7.90014 4.13938 7.99793 4.18911 8.037C4.27954 8.11524 4.27502 8.11524 4.13485 8.16901C4.05346 8.20322 3.98564 8.257 3.98564 8.29611C3.98564 8.33033 4.12129 8.43788 4.29311 8.53076C4.70909 8.75561 5.09342 9.07825 5.48228 9.52799C5.9028 10.012 6.13791 10.4079 6.51773 11.2682C6.85232 12.0113 7.7114 14.4359 7.70236 14.5972C7.69784 14.651 6.92919 18.2244 5.99775 22.5409C2.81004 37.2745 2.17249 40.3884 1.63895 43.9275C1.40835 45.4429 1.38574 45.6678 1.38574 46.494C1.38574 47.4424 1.46261 47.7991 1.78364 48.3123C1.88764 48.4834 2.0052 48.684 2.04137 48.762C2.27649 49.2607 2.87786 49.6959 3.53349 49.8475C4.09416 49.9745 5.40541 49.916 6.25094 49.725C6.90655 49.5784 8.29922 49.1192 8.34893 49.0406C8.37609 48.9921 8.35345 48.9626 8.05507 48.674C7.85612 48.4834 7.85612 48.4834 7.95559 48.4103C8.05507 48.3418 8.05055 48.3368 7.72948 48.0142C7.07839 47.3639 6.85232 46.8702 6.64432 45.6189C6.52225 44.8808 6.51321 43.2725 6.62625 42.1189C6.83424 40.007 6.93823 39.3814 8.77852 29.3504C9.62404 24.7504 10.3158 20.9521 10.3158 20.9033C10.3158 20.7664 10.3927 20.869 10.5193 21.1624C10.8358 21.8956 11.618 23.8216 12.5314 26.1094C15.0906 32.5376 16.23 35.2409 17.8261 38.6725C20.4848 44.4066 22.4607 47.535 24.3462 49.0066C24.7849 49.3488 25.5038 49.7299 25.9198 49.8375C26.2995 49.94 26.9552 49.94 27.2762 49.8375C28.7819 49.3633 30.1971 47.0368 31.4813 42.9303C32.7202 38.9756 33.9365 33.1047 35.0262 25.8601C35.9893 19.4612 36.3058 15.1399 35.9712 13.0232C35.8356 12.1384 35.5642 11.4247 35.0217 10.5057C34.5198 9.6551 33.846 9.27379 32.8558 9.27869C32.0239 9.27869 31.323 9.47912 30.3102 10.0071C29.7495 10.2955 28.7909 10.926 28.6734 11.0776C28.6327 11.1265 28.6643 11.1754 28.8181 11.2878C29.0713 11.4784 29.1888 11.6202 29.1301 11.6642C29.0351 11.7277 29.0848 11.8598 29.2476 11.982C29.5415 12.197 30.1203 12.8716 30.3011 13.1992C30.7714 14.0742 31.1331 15.3989 31.3185 16.9339C31.5265 18.6644 31.4903 22.1547 31.2235 25.645C30.993 28.71 30.5408 31.9608 29.9349 34.9329C29.008 39.4449 28.063 42.0015 27.127 42.505C26.8286 42.6663 26.6703 42.6663 26.3719 42.505C25.1646 41.8549 23.0983 38.0321 20.209 31.0955C19.4449 29.2624 18.8571 27.7959 16.9625 22.9808C12.1471 10.7452 11.0438 8.05656 10.4108 7.05448C10.1892 6.70248 9.77323 6.2821 9.47029 6.10122C8.96387 5.80794 8.25854 5.71015 7.67072 5.84701Z" fill="#394050"/>
<path d="M35.0649 14.4574C35.0178 14.6055 34.9708 16.4876 35.0061 16.7955C35.057 17.2241 35.1982 17.68 35.3707 17.9568C35.4451 18.0737 35.5784 18.2919 35.6725 18.4439C35.7666 18.5919 35.8921 18.779 35.9548 18.853C36.4213 19.3986 37.3073 19.8311 38.2992 19.9987C39.2322 20.1546 40.1104 20.1546 43.3564 20.0026C44.8069 19.9324 51.3461 19.5194 51.9537 19.4609C52.1026 19.4453 52.1341 19.4531 52.1103 19.4921C52.0674 19.5661 51.0754 20.6066 49.3351 22.3991C41.4707 30.5045 35.4256 37.2966 31.2151 42.7405L30.631 43.5004L30.5055 44.0849C30.2977 45.0747 30.2507 45.3591 30.2507 45.6826C30.2468 46.0607 30.2977 46.2476 30.4663 46.4972C30.5369 46.602 30.631 46.7541 30.6741 46.8321C30.8897 47.2296 31.1406 47.4129 31.615 47.5336C31.9992 47.6308 32.2971 47.6308 33.2301 47.5373C36.1508 47.2373 36.4723 47.2178 38.997 47.1947C45.8772 47.132 49.9738 47.7442 53.2553 49.3261C53.557 49.474 53.9492 49.6728 54.1218 49.7703C54.4404 49.9505 54.357 50.4664 54.4824 49.8988C54.545 49.8212 54.6194 48.6481 54.592 48.1376C54.5372 47.1556 54.3687 46.5163 53.9729 45.7993C53.6511 45.215 53.4278 44.911 53.1649 44.7045C52.2518 43.9875 49.7346 43.3991 46.3555 43.1107C44.0934 42.9236 39.9614 42.8418 37.2916 42.9353C36.5272 42.9626 35.896 42.9743 35.8842 42.9626C35.8136 42.8925 39.5262 38.528 42.9056 34.7131C48.0413 28.9107 51.405 25.2399 54.2391 22.3407C56.1172 20.4195 56.3957 19.987 56.7404 18.4555C56.8814 17.8282 57.0777 16.663 57.0503 16.6202C57.0385 16.6006 56.9481 16.5929 56.854 16.6084C56.6856 16.6318 56.6778 16.6279 56.6975 16.5422C56.7445 16.3551 56.7719 16.0902 56.7481 16.0551C56.7367 16.0317 56.5678 16.0473 56.3249 16.0902C54.886 16.3551 52.9572 16.55 50.6285 16.6747C49.3822 16.737 43.9327 16.7643 42.7683 16.7137C38.9539 16.5383 36.6487 15.907 35.3981 14.6951C35.2374 14.5392 35.1001 14.4106 35.0923 14.4106C35.0884 14.4106 35.0766 14.434 35.0649 14.4574Z" fill="#394050"/>
<path d="M55.4443 49.7138C55.8054 48.6479 55.8661 47.0208 57.201 46.1958C58.7605 45.2129 60.2465 44.75 60.0648 43.4313L59.9968 42.9561L61.2079 41.4393C67.1308 34.0615 72.5287 25.9737 81.6208 10.8751C84.2458 6.51569 85.0251 4.9668 84.5759 4.96045C84.1919 4.96766 82.4216 6.99652 80.0823 10.1135C68.0055 26.1741 62.241 34.3972 58.4523 40.9493C57.8315 42.0191 56.5535 41.6293 55.9979 41.9664C53.8244 43.2961 54.1405 45.672 54.5532 48.1292C54.6915 48.9632 55.0709 50.1989 55.1896 50.2238C55.2325 50.2329 55.3494 50.001 55.4443 49.7138Z" fill="#394050"/>
</g>
<defs>
<clipPath id="clip0">
<rect width="84" height="54" fill="white" transform="translate(0.986328 0.408203)"/>
</clipPath>
</defs>
</svg>
