<svg width="85" height="55" viewBox="0 0 85 55" fill="none" xmlns="http://www.w3.org/2000/svg">
<g clip-path="url(#clip0)">
<path d="M6.91486 6.20443C6.53956 6.29242 5.80707 6.56619 5.08362 6.87907C4.12957 7.29455 2.77763 7.94958 2.77763 7.9936C2.77763 8.01806 2.90423 8.10115 3.06249 8.17938C3.21622 8.25757 3.38352 8.35536 3.43325 8.39443C3.52368 8.47266 3.51916 8.47266 3.37899 8.52643C3.2976 8.56065 3.22978 8.61442 3.22978 8.65354C3.22978 8.68775 3.36543 8.7953 3.53725 8.88819C3.95323 9.11303 4.33757 9.43567 4.72642 9.88542C5.14694 10.3694 5.38205 10.7653 5.76187 11.6257C6.09646 12.3687 6.95554 14.7933 6.9465 14.9547C6.94198 15.0084 6.17334 18.5819 5.24189 22.8983C2.05418 37.6319 1.41663 40.7458 0.883093 44.285C0.652491 45.8004 0.629883 46.0253 0.629883 46.8515C0.629883 47.7999 0.706747 48.1565 1.02778 48.6698C1.13178 48.8408 1.24934 49.0414 1.28551 49.1195C1.52063 49.6182 2.122 50.0533 2.77763 50.2049C3.3383 50.332 4.64955 50.2734 5.49508 50.0824C6.15069 49.9358 7.54336 49.4766 7.59307 49.3981C7.62024 49.3495 7.59759 49.32 7.29921 49.0314C7.10026 48.8408 7.10026 48.8408 7.19973 48.7678C7.29921 48.6992 7.29469 48.6943 6.97362 48.3716C6.32253 47.7213 6.09646 47.2276 5.88847 45.9763C5.76639 45.2382 5.75735 43.6299 5.87039 42.4763C6.07838 40.3645 6.18237 39.7388 8.02266 29.7078C8.86818 25.1078 9.55995 21.3095 9.55995 21.2607C9.55995 21.1238 9.63683 21.2265 9.76342 21.5198C10.08 22.253 10.8622 24.179 11.7755 26.4668C14.3348 32.895 15.4742 35.5983 17.0703 39.0299C19.729 44.764 21.7049 47.8924 23.5904 49.364C24.029 49.7062 24.7479 50.0874 25.1639 50.1949C25.5437 50.2975 26.1993 50.2975 26.5204 50.1949C28.026 49.7207 29.4413 47.3942 30.7254 43.2877C31.9643 39.333 33.1806 33.4621 34.2703 26.2175C35.2334 19.8186 35.5499 15.4973 35.2153 13.3806C35.0797 12.4958 34.8084 11.7821 34.2658 10.8631C33.7639 10.0125 33.0902 9.63121 32.1 9.63611C31.268 9.63611 30.5672 9.83654 29.5543 10.3645C28.9937 10.6529 28.0351 11.2835 27.9175 11.435C27.8768 11.4839 27.9085 11.5328 28.0622 11.6452C28.3154 11.8359 28.433 11.9776 28.3742 12.0216C28.2793 12.0852 28.329 12.2172 28.4918 12.3394C28.7857 12.5545 29.3644 13.2291 29.5453 13.5566C30.0155 14.4316 30.3773 15.7563 30.5626 17.2913C30.7706 19.0218 30.7344 22.5121 30.4677 26.0024C30.2371 29.0674 29.7849 32.3182 29.179 35.2903C28.2521 39.8023 27.3071 42.3589 26.3711 42.8624C26.0727 43.0238 25.9145 43.0238 25.616 42.8624C24.4088 42.2123 22.3424 38.3896 19.4531 31.453C18.689 29.6198 18.1012 28.1533 16.2067 23.3382C11.3912 11.1026 10.288 8.41398 9.65491 7.4119C9.43336 7.0599 9.01737 6.63952 8.71443 6.45864C8.20801 6.16536 7.50268 6.06757 6.91486 6.20443Z" fill="#F3F5F7"/>
<path d="M34.309 14.8148C34.262 14.9629 34.215 16.8451 34.2502 17.1529C34.3012 17.5816 34.4423 18.0375 34.6148 18.3142C34.6893 18.4311 34.8226 18.6493 34.9167 18.8013C35.0108 18.9493 35.1362 19.1364 35.1989 19.2105C35.6655 19.756 36.5515 20.1885 37.5433 20.3561C38.4764 20.512 39.3545 20.512 42.6006 20.36C44.0511 20.2899 50.5902 19.8768 51.1979 19.8183C51.3467 19.8028 51.3782 19.8105 51.3545 19.8495C51.3116 19.9236 50.3195 20.964 48.5793 22.7565C40.7149 30.8619 34.6697 37.654 30.4592 43.0979L29.8751 43.8578L29.7497 44.4423C29.5419 45.4321 29.4948 45.7165 29.4948 46.04C29.4909 46.4181 29.5419 46.6051 29.7105 46.8546C29.781 46.9595 29.8751 47.1115 29.9182 47.1895C30.1338 47.587 30.3847 47.7704 30.8591 47.8911C31.2433 47.9882 31.5412 47.9882 32.4743 47.8947C35.395 47.5948 35.7164 47.5752 38.2411 47.5521C45.1213 47.4895 49.2179 48.1016 52.4994 49.6835C52.8012 49.8314 53.1933 50.0302 53.3659 50.1278C53.6845 50.3079 53.6012 50.8238 53.7266 50.2562C53.7891 50.1786 53.8635 49.0056 53.8361 48.4951C53.7813 47.5131 53.6129 46.8737 53.2171 46.1567C52.8952 45.5724 52.672 45.2684 52.409 45.0619C51.496 44.3449 48.9787 43.7565 45.5996 43.4681C43.3376 43.2811 39.2055 43.1992 36.5358 43.2928C35.7713 43.32 35.1401 43.3317 35.1284 43.32C35.0578 43.2499 38.7704 38.8855 42.1497 35.0705C47.2855 29.2681 50.6491 25.5973 53.4832 22.6981C55.3614 20.7769 55.6398 20.3444 55.9845 18.8129C56.1256 18.1856 56.3219 17.0204 56.2945 16.9776C56.2826 16.9581 56.1922 16.9503 56.0982 16.9659C55.9297 16.9892 55.922 16.9853 55.9416 16.8996C55.9886 16.7126 56.016 16.4476 55.9923 16.4125C55.9809 16.3892 55.8119 16.4047 55.5691 16.4476C54.1301 16.7126 52.2013 16.9074 49.8726 17.0321C48.6263 17.0945 43.1768 17.1217 42.0125 17.0711C38.198 16.8957 35.8929 16.2645 34.6423 15.0525C34.4815 14.8967 34.3443 14.7681 34.3365 14.7681C34.3326 14.7681 34.3208 14.7914 34.309 14.8148Z" fill="#F3F5F7"/>
<path d="M54.6885 50.0712C55.0496 49.0053 55.1103 47.3782 56.4452 46.5532C58.0046 45.5703 59.4906 45.1074 59.3089 43.7887L59.2409 43.3135L60.452 41.7967C66.375 34.419 71.7729 26.3311 80.865 11.2325C83.49 6.87312 84.2692 5.32422 83.82 5.31787C83.4361 5.32509 81.6657 7.35394 79.3265 10.4709C67.2497 26.5315 61.4852 34.7546 57.6965 41.3067C57.0756 42.3765 55.7977 41.9867 55.2421 42.3239C53.0686 43.6535 53.3846 46.0295 53.7973 48.4866C53.9357 49.3207 54.315 50.5563 54.4337 50.5813C54.4766 50.5903 54.5935 50.3585 54.6885 50.0712Z" fill="#F3F5F7"/>
</g>
<defs>
<clipPath id="clip0">
<rect width="84" height="54" fill="white" transform="translate(0.230469 0.765625)"/>
</clipPath>
</defs>
</svg>
